<svg width="165" height="165" viewBox="0 0 165 165" fill="none" xmlns="http://www.w3.org/2000/svg">
<circle cx="82.0723" cy="82.0723" r="82.0723" fill="white"/>
<mask id="mask0_1_46" style="mask-type:luminance" maskUnits="userSpaceOnUse" x="20" y="28" width="123" height="109">
<path d="M130.642 43.5315H120.42V40.1343C120.42 33.5353 115.071 28.1862 108.472 28.1862H54.8432C48.2443 28.1862 42.8951 33.5353 42.8951 40.1343V43.5315H32.6735C26.0745 43.5315 20.7253 48.8806 20.7253 55.4796V109.109C20.7253 115.708 26.0745 121.057 32.6735 121.057H42.8951V124.454C42.8951 131.053 48.2443 136.402 54.8432 136.402H108.472C115.071 136.402 120.42 131.053 120.42 124.454V121.057H130.642C137.241 121.057 142.59 115.708 142.59 109.109V55.4796C142.59 48.8806 137.241 43.5315 130.642 43.5315Z" fill="white"/>
</mask>
<g mask="url(#mask0_1_46)">
<path d="M130.643 37.5211H126.241C124.972 28.8521 117.489 22.1736 108.472 22.1736H54.8403C45.8234 22.1736 38.3397 28.8521 37.0684 37.5211H32.6684C22.7668 37.5211 14.7097 45.5781 14.7097 55.4819V109.111C14.7097 119.015 22.7668 127.072 32.6706 127.072H37.0706C38.3397 135.741 45.8255 142.419 54.8425 142.419H108.474C117.491 142.419 124.974 135.743 126.243 127.072H130.646C140.549 127.072 148.606 119.015 148.606 109.111V55.4819C148.606 45.5781 140.549 37.5211 130.646 37.5211H130.643Z" fill="#00EEB8"/>
<path d="M103.027 100.178C102.949 100.129 102.949 100.069 102.941 99.9872C102.928 99.8691 102.975 99.2871 102.997 99.1583C103.177 98.0696 105.086 97.6401 105.951 97.275C107.203 96.7446 106.709 95.4991 106.314 94.5285C105.623 92.8235 104.197 90.2487 103.13 88.7498C103.085 88.6854 102.994 88.505 102.915 88.5244C102.249 89.7484 101.358 90.8285 100.463 91.8893C98.9939 93.6287 97.3726 95.2285 95.8737 96.9357C95.1865 97.7195 94.5552 98.6086 93.8637 99.3666C93.3398 99.9421 92.9038 100.318 92.0814 100.402L84.5698 100.376C84.3422 100.217 84.8275 99.3065 84.9585 99.1218C85.7594 98.003 87.9262 97.8376 89.1029 97.26C89.745 96.9443 90.0199 96.1777 90.3119 95.555C90.8788 94.3417 91.3985 92.9824 91.8666 91.7218C92.8695 89.0312 93.9711 86.0828 94.8258 83.3556C94.8794 83.1816 95.2381 81.9812 95.1844 81.9276C94.6604 81.9319 94.1407 81.745 93.6168 81.7085C91.916 81.5926 90.5932 82.619 88.8367 82.3635C88.4437 82.3076 87.9305 81.9748 87.516 81.9254C86.2276 81.7751 83.378 82.6405 82.4267 81.7364C82.2377 81.5582 82.0831 81.2039 81.8812 81.0171C81.6923 80.8431 81.4195 80.8002 81.2499 80.6026C81.048 80.3664 80.8204 79.7415 80.902 79.4366C80.9901 79.1037 82.9657 77.3171 83.3114 76.9499C83.4875 76.7631 84.0866 76.1446 84.1596 75.9857C84.2369 75.8204 84.2112 75.0494 84.3164 74.7123C84.5676 73.8941 86.6463 71.7145 87.4151 71.1584C87.6491 70.9887 88.6735 70.4175 88.7572 70.3015C88.8538 70.1663 88.7787 70.0374 88.8109 69.915C89.0535 69.0024 89.5324 68.4655 90.4107 68.1048C91.2804 67.7461 92.3112 68.2078 92.6633 69.0539L92.8373 69.0475C94.8236 68.1713 96.8593 67.2887 98.7448 66.2108C99.943 65.5257 101.023 64.5379 102.473 64.4391C104.251 64.3189 105.831 64.6882 107.397 65.5128C108.137 65.9015 108.807 66.4577 109.566 66.8077C113.031 68.4075 116.916 67.1212 120.498 67.9738C127.045 69.5306 132.195 76.8726 132.693 83.3792C132.927 86.4221 132.734 89.1213 133.475 92.1642C133.816 93.5665 134.445 94.7325 134.873 96.0424C134.911 96.1627 135.008 96.4676 135.006 96.575C135.006 96.7382 134.744 97.2557 134.654 97.4382C133.979 98.8104 132.674 100.23 131.061 100.389C129.861 100.509 127.61 100.485 126.39 100.397C126.289 100.391 126.189 100.38 126.098 100.333C125.933 98.6343 127.838 97.9665 128.978 97.1526L129.055 96.9658C127.617 95.716 126.39 94.1935 124.967 92.9416C124.705 92.7118 124.297 92.3339 124.017 92.1578C123.914 92.0933 123.837 92.0139 123.7 92.0354C123.002 93.2809 122.259 94.5092 121.726 95.8406C121.529 96.3387 121.271 97.0087 121.153 97.522C120.985 98.2607 121.084 99.4074 120.474 99.9228C120.114 100.228 119.635 100.296 119.186 100.395L112.449 100.369C112.293 100.262 112.329 100.118 112.372 99.9614C112.49 99.5341 112.83 99.1475 113.152 98.8598L115.698 97.5026C115.587 97.0367 115.501 96.5664 115.406 96.0961C115.125 94.7325 114.842 93.3195 114.762 91.9022C114.732 91.3826 114.803 90.8521 114.739 90.3325L112.342 89.8407C112.34 90.6224 112.415 91.3976 112.4 92.1792C112.37 93.9015 112.155 95.9221 111.462 97.5091C111.273 97.9407 110.783 99.0659 110.551 99.4031C110.467 99.5233 110.199 99.781 110.072 99.8583C109.939 99.9378 109.25 100.176 109.125 100.176H103.02L103.027 100.178Z" fill="#007A77"/>
<path d="M77.0968 58.8936V60.1305C77.0968 61.1334 76.2335 62.3166 75.3982 62.8319C74.5886 63.3323 73.3259 63.5728 73.0253 64.5563C73.4247 64.6315 73.8327 64.8247 74.2085 64.9965C74.9537 65.338 75.0718 65.5914 75.9715 65.5484C77.8462 65.4582 79.7703 64.9965 81.0544 63.5384C81.7803 62.7138 82.2849 61.6251 82.7895 60.6545C82.9162 60.6309 82.8647 60.7103 82.8711 60.7919C83.1374 64.0968 82.9807 66.0294 79.635 67.2878C79.3022 67.4123 77.0925 68.0372 77.0474 68.1661C77.0732 68.5655 77.1977 68.9821 77.2578 69.3729C77.3781 70.1825 77.5112 70.6979 77.6873 71.4731C77.9085 72.4394 77.2621 74.196 77.1591 75.2546C77.0989 75.8709 77.3502 77.1293 77.4983 77.765C77.7496 78.8408 78.4411 79.7148 77.6487 80.7455C76.9572 81.6475 75.7053 81.918 74.6402 82.1349C73.8757 82.2917 73.4741 82.369 72.8621 81.7935C72.4885 81.4413 72.248 80.5716 71.7948 80.3311C71.2151 80.024 70.5966 80.2688 70.034 80.1657C69.4735 80.0627 69.4198 78.9546 69.233 78.5187C69.1342 78.4994 69.0913 78.5659 69.0548 78.6432C68.9195 78.931 68.7176 79.9811 68.6897 80.3118C68.6017 81.3425 68.9109 82.4721 68.2108 83.3525C67.8823 83.7648 67.631 83.681 67.5817 84.3167C67.4378 86.1613 68.2559 87.8255 69.1986 89.3566C69.7419 90.2392 70.9187 91.3838 71.0905 92.3587C71.2451 93.2413 70.384 93.8468 69.8944 94.4374C69.4306 94.9978 68.941 95.8074 68.7133 96.4989C68.548 97.0014 68.5802 97.5425 68.1292 97.8947C67.427 98.4401 65.7907 98.7128 64.9124 98.8567C64.5667 98.9125 64.1866 98.8223 63.8452 99.0564L63.7421 98.9898C63.6584 97.9935 63.871 97.0228 64.0943 96.0586C64.2532 95.7816 66.0957 95.5755 66.581 95.2448C67.0083 94.9549 67.7084 93.7545 67.4421 93.2563C67.2273 92.8504 65.6683 92.2706 65.1723 92.0086C64.9983 91.9163 64.1823 91.3387 64.0685 91.4439C64.0621 91.489 64.0728 91.547 64.047 91.5835C63.6648 92.1225 62.9905 92.9256 62.2733 93.0308C61.6763 93.1167 60.7293 92.844 60.171 92.6099C59.7716 92.4424 59.413 92.1697 59.0049 92.0452C58.9062 92.1482 59.4538 94.5018 59.5525 94.8239C59.5998 95.2942 59.4988 95.8482 59.5525 96.3077C59.6878 97.463 61.2125 98.3993 61.8094 99.385C62.2389 100.094 62.4558 100.916 62.6791 101.708L62.6018 101.831C62.5117 101.833 62.43 101.777 62.3377 101.784C61.3113 101.846 59.0801 102.016 58.2147 101.552C57.9527 101.412 57.8217 101.285 57.7938 100.983C57.753 100.532 57.8454 100.272 57.9033 99.8767C57.9441 99.604 57.8325 99.3442 57.6542 99.1423C57.5104 98.9813 57.2248 98.8696 57.1066 98.7558C56.7845 98.438 56.8533 97.3965 56.806 96.967C56.5591 94.6779 54.7896 92.7924 53.3423 91.139C52.5649 90.2499 52.1247 89.7625 51.0145 89.1225C49.6509 88.3366 47.5636 89.1075 47.3467 89.2986C47.1706 89.7453 46.8893 90.2714 46.593 90.6579C46.2859 91.0595 45.7534 91.3215 45.7555 91.9013C45.7619 93.1468 47.3231 95.0322 48.1735 95.9191C49.172 96.9606 49.6681 97.4201 50.4347 98.7171C50.5356 98.8889 51.3731 100.336 51.3044 100.403C51.0402 100.414 50.7718 100.39 50.5077 100.403C49.5177 100.457 48.472 100.613 47.4799 100.514C46.7175 100.439 46.5479 100.033 46.5178 99.3313C46.5071 99.0478 46.6359 98.3843 46.5479 98.2017C46.4341 97.9655 46.0239 98.0149 45.8457 97.9698C44.9567 97.7444 44.8472 96.748 44.5336 96.0372C43.782 94.3278 42.4421 93.2778 41.2975 91.8905C41.1923 91.7638 40.7864 91.2893 40.7585 91.1798C40.6576 90.7911 40.9625 90.1254 41.1107 89.7453C41.5895 88.5191 42.2789 87.381 42.7792 86.1634C42.6783 86.0432 40.8251 88.0446 40.664 88.1992C39.4464 89.3652 38.2203 90.237 36.9383 91.2807C35.6176 92.3544 34.7587 95.2598 34.8575 96.9155C34.9326 98.1846 35.6348 99.3893 35.8882 100.613C35.929 100.813 35.9784 100.968 35.8989 101.167C35.0271 101.217 34.1617 101.105 33.2899 101.116C32.8067 101.122 31.66 101.395 31.5204 100.691C31.3701 99.9326 32.025 99.4301 31.9434 99.0049C31.9005 98.7751 31.5354 98.6999 31.4173 98.5131C30.9234 97.7379 31.7588 96.3915 32.0229 95.6184C32.2677 94.9033 32.4524 93.9843 32.4953 93.2327C32.5469 92.3329 32.4008 91.3838 32.6156 90.4947C32.9441 89.1354 34.7222 88.2657 34.8983 86.8399C34.9777 86.2107 34.8789 85.4677 34.9111 84.8192C34.9197 84.628 35.0078 84.4047 35.0185 84.2136C35.1559 82.0619 34.9863 79.835 35.4716 77.7392C35.652 76.9597 35.9698 76.2167 36.1738 75.4458C36.0364 75.3148 34.72 76.075 34.5117 76.2167C33.0687 77.2088 33.2211 78.4049 33.0386 79.9789C33.0214 80.1357 32.9506 80.2796 32.9355 80.4256C32.5705 83.9516 33.642 87.4927 29.4095 88.94C29.2549 88.9937 27.537 89.4404 27.5413 89.2707C27.6465 89.0538 27.9536 88.8992 28.0846 88.7145C28.922 87.5378 27.8226 85.6652 29.2828 84.5808C29.8304 84.1728 31.0673 83.6102 31.4087 83.0733C32.272 81.7183 31.8318 78.9675 32.0551 77.3462C32.345 75.2396 36.06 72.8796 38.0163 72.6949C38.2761 72.6713 38.5896 72.7336 38.8387 72.6928C39.2167 72.6284 40.11 72.1109 40.576 71.9541C42.7083 71.2369 44.9481 71.3893 47.0117 70.4166C48.4483 69.7401 49.6745 68.4152 50.9007 67.4209C52.4146 66.1948 53.9886 64.8548 55.5197 63.6823C58.0064 61.7797 60.5511 61.2622 63.5682 62.2715C65.1766 62.8083 66.6261 63.7725 68.3053 64.1225C68.9345 63.4182 69.5165 62.8513 70.4742 62.5957C72.0375 62.177 72.9222 62.0181 74.3546 61.1419C75.4025 60.4999 76.008 59.6796 76.9228 58.9817C76.9787 58.9387 76.9916 58.8764 77.0882 58.9001L77.0968 58.8936Z" fill="#007A77"/>
<path d="M108.316 37.6486C105.14 34.5198 99.5692 34.071 95.822 36.6801C92.2122 39.1926 90.9688 44.2411 92.9487 48.3899C93.8571 50.2925 95.2851 51.7012 97.2092 52.558C100.033 53.8163 102.893 53.7304 105.747 52.6095C106.254 53.1657 106.737 53.6961 107.238 54.2458C108.167 53.4771 109.028 52.7663 109.9 52.0469C109.449 51.5014 109.054 51.0269 108.633 50.5179C112.106 46.3198 111.313 40.6034 108.316 37.6507V37.6486ZM106.039 47.5245C105.346 46.7407 104.714 46.0299 104.064 45.2955C103.16 46.017 102.303 46.702 101.371 47.4493C102.004 48.1966 102.614 48.9138 103.23 49.6397C101.311 50.6017 98.3838 49.7105 97.0589 47.795C95.4161 45.4222 95.7339 41.7458 97.746 39.8518C99.5992 38.1081 102.855 37.96 104.852 39.5276C107.064 41.2648 107.624 44.823 106.044 47.5245H106.039Z" fill="url(#paint0_linear_1_46)"/>
<path d="M61.5214 35.979L61.268 35.163H56.3204L56.0499 35.9769C54.5166 40.0204 52.9533 44.0533 51.3986 48.0882C50.7436 49.7868 50.0887 51.4875 49.3972 53.2763C50.0736 53.2763 50.6341 53.2806 51.1946 53.2763C51.5167 53.272 51.7679 53.2742 52.0192 53.2656L53.0843 53.272L53.9025 53.2914L54.9869 50.2936H62.6188L63.7032 53.2914L64.6502 53.2677C65.8033 53.2849 66.9565 53.2763 68.1333 53.2763C68.1096 53.1282 68.1118 53.0423 68.0817 52.9693C65.9021 47.3044 63.7268 41.6374 61.5214 35.9833V35.979ZM58.8007 39.1164C59.7649 41.7813 60.6668 44.2809 61.588 46.8298H56.0155C56.9475 44.2508 57.8408 41.7727 58.7985 39.1164H58.8007Z" fill="url(#paint1_linear_1_46)"/>
<path d="M84.796 40.9734C85.8568 40.4624 86.9348 39.9427 88.0149 39.4209C86.0651 35.7402 82.0537 34.1941 77.6322 35.3537C73.404 36.4618 70.7155 40.093 70.8615 44.5038C71.0075 48.9467 73.9645 52.4406 78.2614 53.2523C82.5519 54.0618 86.4903 52.3482 87.972 48.9832C86.9133 48.4808 85.8525 47.9783 84.7702 47.465C82.4553 50.4199 79.1956 50.8493 76.6788 48.616C74.2866 46.4944 74.19 42.2941 76.4791 40.0264C78.9207 37.6063 82.1697 37.9564 84.796 40.9734Z" fill="url(#paint2_linear_1_46)"/>
<path d="M55.5941 115.494V128.355H51.5183V109.207H55.71L64.5809 121.608V109.207H68.6567V128.355H64.7248L55.5962 115.494H55.5941Z" fill="url(#paint3_linear_1_46)"/>
<path d="M79.9301 120.517L72.5516 109.207H77.2029L81.968 116.901L86.6772 109.207H91.3285L84.008 120.517V128.355H79.9322V120.517H79.9301Z" fill="url(#paint4_linear_1_46)"/>
<path d="M93.1874 118.797C93.1874 112.913 97.6368 108.893 103.235 108.893C107.599 108.893 110.038 111.191 111.389 113.572L107.886 115.295C107.083 113.744 105.361 112.509 103.235 112.509C99.9044 112.509 97.3791 115.179 97.3791 118.797C97.3791 122.415 99.9044 125.082 103.235 125.082C105.359 125.082 107.081 123.878 107.886 122.297L111.389 123.992C110.01 126.373 107.599 128.699 103.235 128.699C97.6368 128.699 93.1874 124.681 93.1874 118.795V118.797Z" fill="url(#paint5_linear_1_46)"/>
</g>
<defs>
<linearGradient id="paint0_linear_1_46" x1="77.6378" y1="24.2273" x2="96.3545" y2="39.9313" gradientUnits="userSpaceOnUse">
<stop stop-color="white"/>
<stop offset="0.21" stop-color="#E7E7E6"/>
<stop offset="0.65" stop-color="#AAAAA8"/>
<stop offset="0.99" stop-color="#797976"/>
</linearGradient>
<linearGradient id="paint1_linear_1_46" x1="58.5795" y1="46.9415" x2="77.2962" y2="62.6454" gradientUnits="userSpaceOnUse">
<stop stop-color="white"/>
<stop offset="0.21" stop-color="#E7E7E6"/>
<stop offset="0.65" stop-color="#AAAAA8"/>
<stop offset="0.99" stop-color="#797976"/>
</linearGradient>
<linearGradient id="paint2_linear_1_46" x1="68.8408" y1="34.7095" x2="87.5575" y2="50.4134" gradientUnits="userSpaceOnUse">
<stop stop-color="white"/>
<stop offset="0.21" stop-color="#E7E7E6"/>
<stop offset="0.65" stop-color="#AAAAA8"/>
<stop offset="0.99" stop-color="#797976"/>
</linearGradient>
<linearGradient id="paint3_linear_1_46" x1="50.0001" y1="111.558" x2="94.4598" y2="143.397" gradientUnits="userSpaceOnUse">
<stop stop-color="white"/>
<stop offset="0.21" stop-color="#E7E7E6"/>
<stop offset="0.65" stop-color="#AAAAA8"/>
<stop offset="0.99" stop-color="#797976"/>
</linearGradient>
<linearGradient id="paint4_linear_1_46" x1="58.658" y1="99.4659" x2="103.118" y2="131.305" gradientUnits="userSpaceOnUse">
<stop stop-color="white"/>
<stop offset="0.21" stop-color="#E7E7E6"/>
<stop offset="0.65" stop-color="#AAAAA8"/>
<stop offset="0.99" stop-color="#797976"/>
</linearGradient>
<linearGradient id="paint5_linear_1_46" x1="64.5754" y1="91.203" x2="109.035" y2="123.042" gradientUnits="userSpaceOnUse">
<stop stop-color="white"/>
<stop offset="0.21" stop-color="#E7E7E6"/>
<stop offset="0.65" stop-color="#AAAAA8"/>
<stop offset="0.99" stop-color="#797976"/>
</linearGradient>
</defs>
</svg>
