<svg width="165" height="165" viewBox="0 0 165 165" fill="none" xmlns="http://www.w3.org/2000/svg">
<circle cx="82.9277" cy="82.2231" r="82.0723" fill="white"/>
<mask id="mask0_1_64" style="mask-type:luminance" maskUnits="userSpaceOnUse" x="12" y="11" width="143" height="143">
<path d="M83.1257 153.518C122.272 153.518 154.006 121.784 154.006 82.6374C154.006 43.4911 122.272 11.7568 83.1257 11.7568C43.9794 11.7568 12.2451 43.4911 12.2451 82.6374C12.2451 121.784 43.9794 153.518 83.1257 153.518Z" fill="white"/>
</mask>
<g mask="url(#mask0_1_64)">
<path d="M83.1263 4.66852C40.1333 4.66852 5.1571 39.6447 5.1571 82.6377C5.1571 125.631 40.1333 160.607 83.1263 160.607C126.119 160.607 161.096 125.631 161.096 82.6377C161.096 39.6447 126.117 4.66852 83.1263 4.66852Z" fill="black"/>
<path d="M35.5874 93.1529C28.5607 93.1529 23.2639 87.9265 23.2639 80.9954C23.2639 74.0643 28.5607 68.8378 35.5874 68.8378C41.1908 68.8378 44.1416 71.9771 45.6353 74.61L46.046 75.3329L40.586 78.0165L40.2316 77.3329C39.3568 75.6452 37.5368 74.5565 35.5874 74.5565C32.2006 74.5565 29.6465 77.3217 29.6465 80.9926C29.6465 84.6635 32.2006 87.4286 35.5874 87.4286C37.5818 87.4286 39.3596 86.3681 40.2288 84.6606L40.5776 83.9743L46.0544 86.6213L45.6325 87.3526C43.4074 91.2007 40.0291 93.1529 35.5902 93.1529H35.5874ZM35.5874 70.4075C29.3568 70.4075 24.8335 74.8603 24.8335 80.9954C24.8335 87.1304 29.3568 91.5833 35.5874 91.5833C39.1374 91.5833 41.9025 90.1403 43.8209 87.2879L41.2358 86.039C40.0066 87.8843 37.9053 89.001 35.5846 89.001C31.3033 89.001 28.0741 85.558 28.0741 80.9954C28.0741 76.4328 31.3033 72.9897 35.5846 72.9897C37.849 72.9897 39.9841 74.1318 41.2274 75.9518L43.8294 74.6719C41.9559 71.8421 39.1852 70.4103 35.5846 70.4103L35.5874 70.4075Z" fill="url(#paint0_linear_1_64)"/>
<path d="M72.4648 92.7585H65.6631L64.2792 88.9666H55.5534L54.1694 92.7585H47.3312L56.4423 69.2001H63.3875L72.4676 92.7585H72.4648ZM66.763 91.1889H70.1807L62.3129 70.7697H57.5225L49.6265 91.1889H53.0752L54.4592 87.397H65.3818L66.7658 91.1889H66.763ZM64.6589 84.9104H55.1371L59.9191 71.7261L64.6589 84.9104ZM57.3762 83.3407H62.4254L59.9135 76.3506L57.3762 83.3407Z" fill="url(#paint1_linear_1_64)"/>
<path d="M95.8418 92.7585H88.6294L84.3087 84.8794H82.1287V92.7585H75.8783V69.2001H86.95C91.8361 69.2001 95.1188 72.3646 95.1188 77.0707C95.1188 80.9272 92.9135 83.1438 90.6941 84.044L95.839 92.7585H95.8418ZM89.5576 91.1889H93.0907L88.3031 83.0791L89.341 82.8344C91.3748 82.3534 93.5492 80.5869 93.5492 77.0707C93.5492 73.2423 90.9585 70.7697 86.95 70.7697H77.4479V91.1889H80.559V83.3098H85.237L89.5576 91.1889ZM86.2581 80.8597H80.559V73.2226H86.2581C88.6237 73.2226 90.3396 74.8288 90.3396 77.0397C90.3396 79.2507 88.6209 80.8597 86.2581 80.8597ZM82.1315 79.2901H86.2581C87.7602 79.2901 88.77 78.3843 88.77 77.0397C88.77 75.6952 87.7602 74.7922 86.2581 74.7922H82.1315V79.2901Z" fill="url(#paint2_linear_1_64)"/>
<path d="M113.395 92.7585H106.45L97.3384 69.2001H104.376L109.921 84.5756L115.437 69.2001H122.475L113.395 92.7585ZM107.527 91.1889H112.317L120.185 70.7697H116.54L109.924 89.2142L103.271 70.7697H99.6281L107.524 91.1889H107.527Z" fill="url(#paint3_linear_1_64)"/>
<path d="M143.017 92.7585H125.889V69.2001H143.017V74.7894H132.139V77.999H142.786V83.5911H132.139V87.1298H143.017V92.7557V92.7585ZM127.458 91.1889H141.447V88.7022H130.569V82.0243H141.216V79.5714H130.569V73.2198H141.447V70.7697H127.458V91.1889Z" fill="url(#paint4_linear_1_64)"/>
<path d="M46.7444 121.692C39.6417 121.692 34.4856 116.578 34.4856 109.534C34.4856 102.491 39.6417 97.3741 46.7444 97.3741C53.8471 97.3741 59.037 102.488 59.037 109.534C59.037 116.581 53.8668 121.692 46.7444 121.692ZM46.7444 98.9465C40.5503 98.9465 36.058 103.399 36.058 109.534C36.058 115.669 40.5531 120.122 46.7444 120.122C52.9357 120.122 57.4645 115.669 57.4645 109.534C57.4645 103.399 52.9554 98.9465 46.7444 98.9465ZM46.7444 117.54C42.3618 117.54 39.3014 114.249 39.3014 109.537C39.3014 104.826 42.3618 101.532 46.7444 101.532C51.127 101.532 54.224 104.823 54.224 109.537C54.224 114.252 51.0792 117.54 46.7444 117.54ZM46.7444 103.098C43.231 103.098 40.871 105.686 40.871 109.534C40.871 113.383 43.2873 115.968 46.7444 115.968C50.2015 115.968 52.6516 113.323 52.6516 109.534C52.6516 105.745 50.224 103.098 46.7444 103.098Z" fill="url(#paint5_linear_1_64)"/>
<path d="M74.6995 121.692C68.0356 121.692 64.0581 117.974 64.0581 111.743V97.7401H70.3732V111.58C70.3732 113.22 70.9358 115.971 74.6995 115.971C78.4632 115.971 78.9583 113.22 78.9583 111.58V97.7401H85.2761V111.709C85.2761 118.055 81.4224 121.692 74.6995 121.692ZM65.6277 99.3097V111.743C65.6277 117.147 68.8486 120.123 74.6995 120.123C80.5504 120.123 83.7037 117.135 83.7037 111.709V99.3097H80.5279V111.58C80.5279 115.256 78.2944 117.54 74.6995 117.54C71.1045 117.54 68.8035 115.313 68.8035 111.58V99.3097H65.6277Z" fill="url(#paint6_linear_1_64)"/>
<path d="M102.717 121.298H96.4325V103.431H90.0021V97.7401H109.113V103.431H102.717V121.298ZM98.0021 119.726H101.147V101.858H107.544V99.3097H91.5745V101.858H98.0049V119.726H98.0021Z" fill="url(#paint7_linear_1_64)"/>
<path d="M122.203 121.691C118.116 121.691 114.791 120.44 112.318 117.967L111.846 117.495L115.359 112.628L116.012 113.306C116.991 114.324 119.123 116.032 122.434 116.032C124.521 116.032 125.472 115.157 125.472 114.344C125.472 113.382 124.178 112.901 121.626 112.307C117.823 111.435 112.813 110.291 112.813 104.819C112.813 100.457 116.566 97.4073 121.941 97.4073C125.632 97.4073 128.695 98.51 131.044 100.682L131.567 101.165L128.009 105.849L127.373 105.261C125.866 103.863 123.764 103.064 121.61 103.064C120.873 103.064 119.165 103.208 119.165 104.521C119.165 105.354 120.594 105.748 122.943 106.293C126.465 107.095 131.792 108.307 131.792 113.849C131.792 117.638 129.272 121.689 122.203 121.689V121.691ZM113.913 117.312C116.029 119.177 118.813 120.122 122.203 120.122C127.224 120.122 130.22 117.779 130.22 113.852C130.22 109.925 126.912 108.811 122.588 107.826C120.017 107.227 117.595 106.662 117.595 104.524C117.595 103.126 118.648 101.497 121.612 101.497C123.86 101.497 126.062 102.24 127.784 103.556L129.441 101.374C127.463 99.7842 124.946 98.9797 121.941 98.9797C117.491 98.9797 114.386 101.382 114.386 104.822C114.386 109.042 118.344 109.947 121.837 110.746C124.242 111.309 127.047 111.961 127.047 114.347C127.047 115.916 125.604 117.604 122.437 117.604C119.269 117.604 116.892 116.201 115.559 115.039L113.916 117.312H113.913Z" fill="url(#paint8_linear_1_64)"/>
<path d="M117.052 45.6104C113.227 41.8411 106.518 41.3038 102.006 44.443C97.6599 47.4669 96.1606 53.5485 98.546 58.5443C99.6402 60.8369 101.359 62.5331 103.677 63.5654C107.078 65.0816 110.524 64.9775 113.961 63.6273C114.571 64.2968 115.154 64.9382 115.756 65.5964C116.875 64.6709 117.913 63.8158 118.962 62.9466C118.419 62.2912 117.944 61.7173 117.438 61.1069C121.621 56.0492 120.664 49.166 117.055 45.6104H117.052ZM114.31 57.5063C113.474 56.564 112.715 55.7061 111.93 54.8228C110.841 55.692 109.809 56.519 108.687 57.4163C109.449 58.3165 110.183 59.18 110.926 60.0521C108.614 61.211 105.089 60.1365 103.491 57.8298C101.514 54.9719 101.896 50.5443 104.318 48.263C106.549 46.1646 110.47 45.9845 112.875 47.872C115.539 49.9648 116.214 54.249 114.31 57.5035V57.5063Z" fill="#00ECB6"/>
<path d="M50.5328 64.4189L51.5202 64.4414L52.8254 60.8296H62.0153L63.3205 64.4414L64.4597 64.4133C65.8465 64.433 67.2389 64.4246 68.6538 64.4246C68.6257 64.2445 68.6257 64.1433 68.5919 64.0532C65.9675 57.2318 63.3458 50.4076 60.6904 43.5975L60.3866 42.613H54.4288L54.1024 43.5919C52.2572 48.4611 50.3725 53.3162 48.5019 58.177C47.7142 60.2248 46.9238 62.2698 46.094 64.4246C46.9097 64.4246 47.5849 64.4302 48.26 64.4246C48.6481 64.4189 48.9519 64.4217 49.2529 64.4105L50.5356 64.4161L50.5328 64.4189ZM57.4189 47.3753C58.5778 50.5849 59.6665 53.5947 60.7776 56.6636H54.0659C55.1882 53.5553 56.2656 50.5736 57.4189 47.3753Z" fill="#00ECB6"/>
<path d="M88.728 49.6145C90.005 48.9985 91.3046 48.374 92.607 47.7468C90.261 43.3136 85.4284 41.4514 80.1035 42.8466C75.0092 44.1799 71.7743 48.5541 71.9487 53.8677C72.1259 59.2179 75.6843 63.4261 80.8601 64.4022C86.0275 65.3755 90.7702 63.3136 92.5536 59.2601C91.2793 58.6554 90.0022 58.0506 88.697 57.4317C85.9094 60.9929 81.9825 61.5077 78.953 58.8185C76.0725 56.2615 75.9544 51.2039 78.7111 48.4725C81.6534 45.5583 85.5662 45.9802 88.728 49.6145Z" fill="#00ECB6"/>
<path d="M122.262 127.582H83.2076C83.185 127.582 83.1625 127.568 83.14 127.568C83.1175 127.568 83.095 127.579 83.0725 127.582H44.0176C43.5816 127.582 43.23 127.933 43.23 128.369C43.23 128.805 43.5816 129.157 44.0176 129.157H80.4762L60.1217 139.185C59.7307 139.376 59.5704 139.849 59.7645 140.24C59.9023 140.518 60.1808 140.679 60.4705 140.679C60.5887 140.679 60.7068 140.654 60.8193 140.597L82.3552 129.987V144.67C82.3552 145.106 82.7068 145.458 83.1428 145.458C83.5789 145.458 83.9305 145.106 83.9305 144.67V130.116L105.208 140.6C105.317 140.656 105.438 140.682 105.556 140.682C105.846 140.682 106.125 140.521 106.262 140.243C106.454 139.855 106.293 139.382 105.905 139.188L85.5507 129.16H122.268C122.704 129.16 123.056 128.808 123.056 128.372C123.056 127.936 122.704 127.585 122.268 127.585L122.262 127.582Z" fill="#00ECB6"/>
<path d="M65.9066 131.938C65.8222 131.511 65.3974 131.23 64.9811 131.32L49.825 134.321C49.3974 134.405 49.1217 134.819 49.2061 135.247C49.2792 135.621 49.6084 135.882 49.9769 135.882C50.0275 135.882 50.0809 135.877 50.1316 135.868L65.2877 132.867C65.7153 132.782 65.9909 132.369 65.9066 131.941V131.938Z" fill="#00ECB6"/>
<path d="M76.5427 136.673L72.0082 143.036C71.7551 143.39 71.8395 143.882 72.1939 144.133C72.3317 144.231 72.4921 144.279 72.6496 144.279C72.8943 144.279 73.1362 144.164 73.2909 143.947L77.8254 137.584C78.0786 137.23 77.9942 136.737 77.6398 136.487C77.2881 136.237 76.7959 136.316 76.5427 136.673Z" fill="#00ECB6"/>
<path d="M116.198 134.319L101.042 131.318C100.623 131.228 100.201 131.509 100.117 131.936C100.032 132.361 100.308 132.778 100.735 132.862L115.892 135.863C115.942 135.875 115.996 135.877 116.046 135.877C116.415 135.877 116.744 135.619 116.817 135.242C116.901 134.817 116.626 134.401 116.198 134.316V134.319Z" fill="#00ECB6"/>
<path d="M89.4807 136.673C89.2275 136.319 88.7353 136.237 88.3837 136.487C88.032 136.738 87.9477 137.233 88.198 137.584L92.7325 143.947C92.8872 144.164 93.1291 144.279 93.3738 144.279C93.5313 144.279 93.6917 144.231 93.8295 144.133C94.184 143.88 94.2655 143.387 94.0152 143.036L89.4807 136.673Z" fill="#00ECB6"/>
<path d="M44.0188 37.9242H83.0766C83.0991 37.9242 83.1188 37.9382 83.1413 37.9382C83.1638 37.9382 83.1835 37.927 83.206 37.9242H122.264C122.7 37.9242 123.051 37.5726 123.051 37.1366C123.051 36.7005 122.7 36.3489 122.264 36.3489H85.8052L106.157 26.3208C106.548 26.1295 106.708 25.6569 106.514 25.2659C106.323 24.8749 105.845 24.7174 105.459 24.9087L83.9233 35.5191V20.8355C83.9233 20.3995 83.5717 20.0479 83.1357 20.0479C82.6997 20.0479 82.348 20.3995 82.348 20.8355V35.3897L61.0709 24.9059C60.6884 24.7174 60.2102 24.8749 60.0161 25.2631C59.8248 25.6541 59.9851 26.1267 60.3733 26.318L80.725 36.3461H44.0076C43.5716 36.3461 43.22 36.6977 43.22 37.1337C43.22 37.5697 43.5716 37.9214 44.0076 37.9214L44.0188 37.9242Z" fill="#00ECB6"/>
<path d="M100.377 33.5685C100.45 33.9426 100.779 34.2042 101.147 34.2042C101.198 34.2042 101.251 34.1986 101.302 34.1901L116.458 31.1887C116.886 31.1043 117.161 30.6908 117.077 30.2633C116.993 29.8357 116.573 29.5628 116.152 29.6444L100.995 32.6458C100.568 32.7302 100.292 33.1437 100.377 33.5713V33.5685Z" fill="#00ECB6"/>
<path d="M89.1022 29.1625C89.347 29.1625 89.5889 29.0471 89.7436 28.8305L94.278 22.4676C94.5312 22.1132 94.4468 21.621 94.0924 21.3706C93.7408 21.1202 93.2485 21.199 92.9953 21.5563L88.4609 27.9191C88.2077 28.2736 88.2921 28.7658 88.6465 29.0162C88.7844 29.1146 88.9447 29.1625 89.1022 29.1625Z" fill="#00ECB6"/>
<path d="M50.0828 31.1878L65.2389 34.1892C65.2895 34.2005 65.343 34.2033 65.3936 34.2033C65.7621 34.2033 66.0912 33.9445 66.1644 33.5675C66.2488 33.14 65.9731 32.7265 65.5455 32.6421L50.3894 29.6407C49.9674 29.5563 49.5483 29.832 49.4639 30.2595C49.3795 30.6871 49.6552 31.1006 50.0828 31.185V31.1878Z" fill="#00ECB6"/>
<path d="M76.7994 28.83C76.9541 29.0466 77.196 29.1619 77.4408 29.1619C77.5983 29.1619 77.7586 29.1141 77.8965 29.0156C78.2509 28.7625 78.3325 28.2702 78.0821 27.9186L73.5477 21.5557C73.2945 21.2013 72.8022 21.1197 72.4506 21.3701C72.0962 21.6232 72.0146 22.1155 72.265 22.4671L76.7994 28.83Z" fill="#00ECB6"/>
</g>
<defs>
<linearGradient id="paint0_linear_1_64" x1="29.8518" y1="75.9686" x2="114.575" y2="152.658" gradientUnits="userSpaceOnUse">
<stop stop-color="white"/>
<stop offset="0.21" stop-color="#E7E7E6"/>
<stop offset="0.65" stop-color="#AAAAA8"/>
<stop offset="0.99" stop-color="#797976"/>
</linearGradient>
<linearGradient id="paint1_linear_1_64" x1="38.8473" y1="66.0327" x2="123.568" y2="142.722" gradientUnits="userSpaceOnUse">
<stop stop-color="white"/>
<stop offset="0.21" stop-color="#E7E7E6"/>
<stop offset="0.65" stop-color="#AAAAA8"/>
<stop offset="0.99" stop-color="#797976"/>
</linearGradient>
<linearGradient id="paint2_linear_1_64" x1="51.3747" y1="52.193" x2="136.098" y2="128.882" gradientUnits="userSpaceOnUse">
<stop stop-color="white"/>
<stop offset="0.21" stop-color="#E7E7E6"/>
<stop offset="0.65" stop-color="#AAAAA8"/>
<stop offset="0.99" stop-color="#797976"/>
</linearGradient>
<linearGradient id="paint3_linear_1_64" x1="65.4649" y1="36.6262" x2="150.185" y2="113.316" gradientUnits="userSpaceOnUse">
<stop stop-color="white"/>
<stop offset="0.21" stop-color="#E7E7E6"/>
<stop offset="0.65" stop-color="#AAAAA8"/>
<stop offset="0.99" stop-color="#797976"/>
</linearGradient>
<linearGradient id="paint4_linear_1_64" x1="74.4679" y1="26.6824" x2="159.191" y2="103.372" gradientUnits="userSpaceOnUse">
<stop stop-color="white"/>
<stop offset="0.21" stop-color="#E7E7E6"/>
<stop offset="0.65" stop-color="#AAAAA8"/>
<stop offset="0.99" stop-color="#797976"/>
</linearGradient>
<linearGradient id="paint5_linear_1_64" x1="20.7641" y1="86.007" x2="105.484" y2="162.696" gradientUnits="userSpaceOnUse">
<stop stop-color="white"/>
<stop offset="0.21" stop-color="#E7E7E6"/>
<stop offset="0.65" stop-color="#AAAAA8"/>
<stop offset="0.99" stop-color="#797976"/>
</linearGradient>
<linearGradient id="paint6_linear_1_64" x1="34.5363" y1="70.792" x2="119.257" y2="147.484" gradientUnits="userSpaceOnUse">
<stop stop-color="white"/>
<stop offset="0.21" stop-color="#E7E7E6"/>
<stop offset="0.65" stop-color="#AAAAA8"/>
<stop offset="0.99" stop-color="#797976"/>
</linearGradient>
<linearGradient id="paint7_linear_1_64" x1="45.9992" y1="58.1282" x2="130.722" y2="134.817" gradientUnits="userSpaceOnUse">
<stop stop-color="white"/>
<stop offset="0.21" stop-color="#E7E7E6"/>
<stop offset="0.65" stop-color="#AAAAA8"/>
<stop offset="0.99" stop-color="#797976"/>
</linearGradient>
<linearGradient id="paint8_linear_1_64" x1="54.608" y1="48.6196" x2="139.331" y2="125.309" gradientUnits="userSpaceOnUse">
<stop stop-color="white"/>
<stop offset="0.21" stop-color="#E7E7E6"/>
<stop offset="0.65" stop-color="#AAAAA8"/>
<stop offset="0.99" stop-color="#797976"/>
</linearGradient>
</defs>
</svg>
