<svg width="168" height="168" viewBox="0 0 168 168" fill="none" xmlns="http://www.w3.org/2000/svg">
<circle cx="83.9097" cy="84.0903" r="83.9097" fill="white"/>
<mask id="mask0_1_96" style="mask-type:luminance" maskUnits="userSpaceOnUse" x="16" y="13" width="135" height="129">
<path d="M150.598 80.5647C150.598 78.2132 150.474 75.8921 150.236 73.6039C149.904 70.3985 149.339 67.264 148.566 64.208C148.507 63.9724 148.444 63.7367 148.381 63.5011C148.145 62.6116 147.897 61.7248 147.626 60.8506C147.603 60.7771 147.58 60.701 147.557 60.6276C139.945 36.1141 119.172 18.4144 94.1288 14.5476C93.9767 14.5248 93.8247 14.502 93.6727 14.4792C92.8111 14.35 91.942 14.2435 91.0703 14.1473C90.8017 14.1194 90.5331 14.0864 90.2619 14.0611C89.4638 13.9851 88.663 13.9268 87.8572 13.8787C87.5684 13.8609 87.282 13.8381 86.9906 13.8229C85.9238 13.7722 84.852 13.7418 83.7725 13.7418C82.693 13.7418 81.6313 13.7722 80.5696 13.8229C80.263 13.8381 79.9589 13.8635 79.6523 13.8812C78.8794 13.9293 78.1066 13.9851 77.3413 14.0586C77.0296 14.089 76.718 14.1244 76.4088 14.1574C75.6056 14.2461 74.8074 14.3449 74.0142 14.464C73.7862 14.4969 73.5556 14.5299 73.3275 14.5654C48.3884 18.4651 27.6429 36.1293 20.0182 60.549C19.9853 60.658 19.9498 60.7669 19.9169 60.8759C19.6508 61.7349 19.4075 62.6015 19.177 63.4732C19.1212 63.681 19.0629 63.8862 19.0123 64.094C18.2597 67.0511 17.7123 70.0868 17.3703 73.1858C17.1017 75.6108 16.9521 78.0713 16.9521 80.5672C16.9521 88.3186 18.3205 95.9712 20.9178 103.195C20.3857 106.436 20.824 109.761 22.2202 112.814L30.7242 131.406C33.5293 137.536 39.6006 141.159 45.938 141.159C46.4955 141.159 121.227 141.159 121.893 141.159C128.231 141.159 134.302 137.536 137.105 131.406L145.611 112.814C147.073 109.619 147.471 106.125 146.82 102.742C149.311 95.6569 150.603 88.164 150.603 80.5647H150.598ZM89.2433 90.4395C89.2205 90.2647 89.1799 90.105 89.1217 89.9581C89.1799 90.1025 89.2205 90.2647 89.2433 90.4395Z" fill="white"/>
</mask>
<g mask="url(#mask0_1_96)">
<path d="M156.984 80.5643C156.984 78.0431 156.85 75.4812 156.587 72.9447C156.229 69.5036 155.613 66.0397 154.76 62.6518L154.554 61.8663C154.296 60.8933 154.025 59.9228 153.728 58.9624L153.657 58.7318C145.318 31.8744 122.882 12.5252 95.1103 8.23771L94.6187 8.16423C93.6735 8.02232 92.7208 7.90323 91.7579 7.79934L90.8836 7.70558C90.0094 7.62196 89.1327 7.55861 88.2433 7.50286L87.9696 7.48513C87.7415 7.46992 87.5135 7.45472 87.3006 7.44458C84.9694 7.33309 82.5976 7.33309 80.2689 7.44458C80.0307 7.45725 79.7951 7.47246 79.5594 7.48766L79.2655 7.50793C78.4166 7.56114 77.5728 7.62196 76.7366 7.70305L75.7129 7.81201C74.8336 7.9083 73.9568 8.01726 73.0775 8.14649L72.3402 8.25798C44.6593 12.5834 22.2743 31.8922 13.8844 58.7571L13.8134 58.9903C13.5246 59.9278 13.256 60.8781 13 61.8435L12.8201 62.515C11.9991 65.7407 11.3935 69.0931 11.0185 72.481C10.7169 75.2152 10.5624 77.9341 10.5624 80.5643C10.5624 88.4855 11.8522 96.323 14.3962 103.887C14.0516 107.842 14.7383 111.813 16.4107 115.467L24.9147 134.059C28.6624 142.248 36.913 147.542 45.9338 147.542H121.889C130.912 147.542 139.163 142.248 142.908 134.059L151.412 115.47C153.166 111.641 153.827 107.475 153.358 103.324C155.763 95.9682 156.982 88.3182 156.982 80.5643H156.984Z" fill="#007A77"/>
<path d="M89.2435 90.4403C89.2207 90.2654 89.1801 90.1058 89.1218 89.9588" stroke="#007A77" stroke-linecap="round" stroke-linejoin="round"/>
<path d="M60.5796 112.787V115.123C60.5796 115.841 60.909 116.322 61.5983 116.322C62.2875 116.322 62.5865 115.874 62.5865 115.123C62.5865 113.327 61.8694 111.918 60.7012 109.911C59.5331 108.054 57.9468 105.299 57.9468 102.996C57.9468 100.51 59.2341 98.5033 61.9302 98.5033C64.0258 98.5033 65.4347 100.031 65.4347 102.667V104.851H62.7689V102.365C62.7689 101.706 62.4091 101.346 61.9302 101.346C61.4209 101.346 61.0028 101.676 61.0028 102.365C61.0028 104.671 61.692 105.479 62.9489 107.696C64.2665 109.942 65.5842 112.308 65.5842 114.642C65.5842 117.756 63.6989 119.044 61.7503 119.044C59.3557 119.044 57.8885 117.546 57.8885 114.88V112.785H60.5821L60.5796 112.787Z" fill="url(#paint0_linear_1_96)"/>
<path d="M73.5754 101.828V118.747H70.4915V101.828H68.2465V98.8022H75.823V101.828H73.5779H73.5754Z" fill="url(#paint1_linear_1_96)"/>
<path d="M86.6058 102.517V115.035C86.6058 117.432 84.8676 119.046 82.7137 119.046C80.5598 119.046 78.8215 117.429 78.8215 115.035V102.517C78.8215 100.122 80.5598 98.5057 82.7137 98.5057C84.8676 98.5057 86.6058 100.122 86.6058 102.517ZM81.9636 102.307V115.242C81.9636 115.752 82.2626 116.051 82.7112 116.051C83.1597 116.051 83.4612 115.752 83.4612 115.242V102.307C83.4612 101.797 83.1622 101.498 82.7112 101.498C82.2601 101.498 81.9636 101.797 81.9636 102.307Z" fill="url(#paint2_linear_1_96)"/>
<path d="M98.1641 118.746H95.1994C94.9308 117.968 94.7813 117.16 94.7813 115.662V111.322C94.7813 110.754 94.6318 110.422 94.0921 110.422H93.3724V118.746H90.2582V98.804H94.4493C95.9773 98.804 97.6827 99.7036 97.6827 102.308V106.859C97.6827 107.789 97.4445 108.565 96.6361 109.105C97.4445 109.644 97.7739 110.392 97.7739 111.38V115.422C97.7739 116.679 97.9538 117.788 98.1641 118.746ZM94.6901 102.488C94.6901 101.888 94.5102 101.619 94.0921 101.619H93.3724V107.789H94.1225C94.5406 107.789 94.6901 107.549 94.6901 106.92V102.488Z" fill="url(#paint3_linear_1_96)"/>
<path d="M106.61 98.804H109.605L106.551 110.782V118.746H103.437V110.782L100.384 98.804H103.379L104.425 103.715C104.666 104.764 104.935 106.231 104.995 106.799H105.056C105.117 106.231 105.325 104.764 105.566 103.715L106.612 98.804H106.61Z" fill="url(#paint4_linear_1_96)"/>
<path d="M95.7445 124.993C94.3913 123.66 92.017 123.467 90.4206 124.58C88.8825 125.649 88.3529 127.803 89.1967 129.569C89.5844 130.38 90.1926 130.981 91.0136 131.346C92.2172 131.883 93.436 131.845 94.6523 131.368C94.8677 131.607 95.0755 131.832 95.2884 132.065C95.6837 131.738 96.0511 131.434 96.4236 131.128C96.231 130.894 96.0637 130.692 95.8838 130.476C97.3637 128.687 97.0266 126.25 95.7495 124.993H95.7445ZM94.774 129.202C94.4775 128.867 94.2089 128.566 93.9327 128.252C93.5475 128.561 93.1826 128.852 92.7848 129.169C93.0559 129.488 93.3144 129.792 93.5779 130.101C92.7595 130.512 91.5128 130.132 90.9477 129.316C90.2483 128.305 90.3826 126.739 91.2416 125.93C92.0322 125.188 93.4183 125.125 94.2697 125.794C95.2123 126.534 95.4505 128.049 94.7765 129.202H94.774Z" fill="#00ECB6"/>
<path d="M75.802 124.281L75.693 123.934H73.5848L73.4682 124.281C72.8145 126.004 72.148 127.722 71.4867 129.443C71.2079 130.167 70.9292 130.892 70.6353 131.655C70.9241 131.655 71.1623 131.655 71.4005 131.655C71.5373 131.655 71.6463 131.655 71.7527 131.65H72.2063L72.556 131.657L73.0172 130.38H76.2682L76.7294 131.657L77.1323 131.647C77.6239 131.655 78.1155 131.65 78.6172 131.65C78.6071 131.586 78.6071 131.551 78.5944 131.518C77.667 129.103 76.7396 126.688 75.7995 124.279L75.802 124.281ZM74.6414 125.619C75.0519 126.754 75.4371 127.821 75.8299 128.906H73.4555C73.8534 127.806 74.2335 126.749 74.6414 125.619Z" fill="#00ECB6"/>
<path d="M85.7213 126.409C86.1724 126.191 86.6336 125.971 87.0947 125.748C86.2636 124.179 84.5557 123.521 82.6705 124.015C80.8688 124.486 79.7235 126.034 79.7843 127.915C79.8476 129.807 81.107 131.297 82.9391 131.642C84.7686 131.987 86.4461 131.257 87.077 129.823C86.626 129.61 86.1749 129.394 85.7112 129.176C84.7255 130.436 83.3344 130.618 82.2625 129.668C81.2438 128.763 81.2008 126.974 82.1763 126.006C83.2178 124.975 84.6013 125.125 85.7213 126.409Z" fill="#00ECB6"/>
<path d="M133.54 110.737L129.163 108.079C134.188 99.8078 136.844 90.2953 136.844 80.5675C136.844 51.3054 113.037 27.4989 83.7752 27.4989C54.5132 27.4989 30.7041 51.3054 30.7041 80.5675C30.7041 90.0039 33.2127 99.2706 37.9563 107.364L33.5396 109.954C28.3349 101.075 25.583 90.9136 25.583 80.5675C25.583 48.4825 51.6878 22.3777 83.7727 22.3777C115.858 22.3777 141.962 48.4825 141.962 80.5675C141.962 91.2329 139.051 101.668 133.537 110.739L133.54 110.737Z" fill="#00EEB8"/>
<path d="M35.906 97.6771L34.0441 98.5287C29.992 100.382 28.2097 105.17 30.0632 109.222L38.5671 127.813C40.4206 131.865 45.208 133.648 49.2601 131.794L51.122 130.942C55.1741 129.089 56.9565 124.301 55.103 120.249L46.5991 101.658C44.7456 97.6059 39.9581 95.8236 35.906 97.6771Z" fill="black"/>
<path d="M116.689 130.944L118.551 131.796C122.603 133.649 127.39 131.867 129.244 127.815L137.748 109.224C139.601 105.171 137.819 100.384 133.767 98.5305L131.905 97.6789C127.853 95.8254 123.065 97.6077 121.212 101.66L112.708 120.251C110.854 124.303 112.637 129.091 116.689 130.944Z" fill="black"/>
<path d="M129.016 49.9804L127.562 51.5109C124.481 54.7569 119.491 54.6986 116.407 51.4526L116.349 51.3943C107.681 42.2822 96.151 37.2726 83.8892 37.303C72.2052 37.3309 60.9063 42.0719 52.4505 50.548C52.382 50.6063 52.3263 50.6722 52.2579 50.7304C48.7027 54.3337 43.0698 54.3033 39.583 50.6342L38.9572 49.9804C49.2146 35.6002 65.5713 26.2955 83.988 26.2955C102.405 26.2955 118.761 35.6002 129.019 49.9804H129.016Z" fill="black"/>
<path d="M135.406 68.2527C129.707 44.2562 108.475 27.4966 83.7742 27.4966C59.0733 27.4966 38.0313 44.1219 32.2159 67.9233L27.2443 66.707C33.6222 40.6048 56.8662 22.373 83.7742 22.373C110.682 22.373 134.139 40.7517 140.39 67.0669L135.409 68.2502L135.406 68.2527Z" fill="#00EEB8"/>
<path d="M63.4595 47.8238H68.9987V49.2555H65.1243V50.9583H68.9151V52.39H65.1243V54.2094H68.9987V55.6537H63.4595V47.8238Z" fill="white"/>
<path d="M70.6355 47.8241H72.5385L74.7101 53.8448L76.869 47.8241H78.772L75.7566 55.654H73.6661L70.638 47.8241H70.6355Z" fill="white"/>
<path d="M80.6721 47.8241H86.2113V49.2558H82.3369V50.9586H86.1277V52.3903H82.3369V54.2097H86.2113V55.654H80.6721V47.8241Z" fill="white"/>
<path d="M91.5702 52.8464H90.3489V55.6515H88.6815V47.8216H92.3431C93.9749 47.8216 94.9733 48.8884 94.9733 50.3454C94.9733 51.8024 94.1042 52.4689 93.2604 52.669L95.0215 55.649H93.1083L91.5702 52.8439V52.8464ZM92.0973 49.2558H90.3489V51.4147H92.0973C92.7663 51.4147 93.2705 50.9916 93.2705 50.3353C93.2705 49.679 92.7663 49.2558 92.0973 49.2558Z" fill="white"/>
<path d="M99.3681 52.4486L96.3527 47.8241H98.2531L100.202 50.9687L102.128 47.8241H104.028L101.035 52.4486V55.654H99.3681V52.4486Z" fill="white"/>
<path d="M69.8317 90.3363H66.1346V93.6228H64.4673V85.7929H66.1346V88.8691H69.8317V85.7929H71.5117V93.6228H69.8317V90.3363Z" fill="white"/>
<path d="M79.2022 92.2723H75.7053L75.2112 93.6204H73.3792L76.4072 85.7905H78.4977L81.5131 93.6204H79.6938L79.1996 92.2723H79.2022ZM76.1513 90.828H78.7461L77.4563 87.2348L76.1538 90.828H76.1513Z" fill="white"/>
<path d="M83.7079 91.2502C84.2603 91.8254 85.1168 92.3069 86.1963 92.3069C87.111 92.3069 87.557 91.8736 87.557 91.4276C87.557 90.8397 86.8754 90.642 85.9733 90.4317C84.6936 90.1378 83.0491 89.7856 83.0491 88.0371C83.0491 86.7347 84.1767 85.678 86.0189 85.678C87.263 85.678 88.2969 86.0531 89.0698 86.7702L88.1423 87.9915C87.5088 87.4037 86.6625 87.1351 85.8998 87.1351C85.1371 87.1351 84.7494 87.4619 84.7494 87.9333C84.7494 88.4603 85.4082 88.625 86.3103 88.8353C87.6001 89.1293 89.2446 89.517 89.2446 91.2527C89.2446 92.687 88.2234 93.7664 86.1101 93.7664C84.6075 93.7664 83.528 93.2622 82.7881 92.5222L83.7054 91.2553L83.7079 91.2502Z" fill="white"/>
<path d="M100.708 92.2723H97.2088L96.7172 93.6204H94.8851L97.9157 85.7905H100.004L103.022 93.6204H101.202L100.711 92.2723H100.708ZM97.6547 90.828H100.25L98.9597 87.2348L97.6573 90.828H97.6547Z" fill="white"/>
<path d="M45.9633 80.9355C43.7486 80.9355 42.1016 79.2885 42.1016 76.8356V64.5003C42.1016 62.0753 43.7486 60.3978 45.9633 60.3978C48.178 60.3978 49.6756 62.0449 49.6756 64.4091V67.8223H46.7412V64.3787C46.7412 63.8389 46.5917 63.3904 45.9912 63.3904C45.3906 63.3904 45.2437 63.8389 45.2437 64.3787V76.9547C45.2437 77.4919 45.3628 77.9429 45.9912 77.9429C46.6196 77.9429 46.7412 77.4944 46.7412 76.9547V73.511H49.6756V76.9243C49.6756 79.3214 48.2388 80.9355 45.9633 80.9355Z" fill="url(#paint5_linear_1_96)"/>
<path d="M61.5054 64.4063V76.9215C61.5054 79.3186 59.7671 80.9328 57.6132 80.9328C55.4594 80.9328 53.7211 79.3161 53.7211 76.9215V64.4063C53.7211 62.0117 55.4594 60.3951 57.6132 60.3951C59.7671 60.3951 61.5054 62.0117 61.5054 64.4063ZM56.8632 64.196V77.1318C56.8632 77.6412 57.1622 77.9402 57.6107 77.9402C58.0592 77.9402 58.3607 77.6412 58.3607 77.1318V64.196C58.3607 63.6867 58.0617 63.3877 57.6107 63.3877C57.1596 63.3877 56.8632 63.6867 56.8632 64.196Z" fill="url(#paint6_linear_1_96)"/>
<path d="M76.9606 80.6364H73.9959V76.5035L74.1758 71.4432H74.115L73.4866 75.7838L72.5896 80.6338H70.1646L69.2676 75.7838L68.6391 71.4432H68.5783L68.7582 76.5035V80.6364H65.9126V60.6942H69.3562L70.9729 70.0951L71.3631 72.7H71.4239L71.8142 70.0951L73.6107 60.6942H76.9657V80.6364H76.9606Z" fill="url(#paint7_linear_1_96)"/>
<path d="M85.6779 72.8799H84.5705V80.6364H81.4563V60.6942H85.6779C87.2667 60.6942 88.8833 61.6216 88.8833 64.2873V69.3172C88.8833 71.9525 87.2667 72.8799 85.6779 72.8799ZM85.9161 64.376C85.9161 63.7754 85.7361 63.5372 85.3763 63.5372H84.568V70.275H85.3763C85.7361 70.275 85.9161 70.0368 85.9161 69.4363V64.3785V64.376Z" fill="url(#paint8_linear_1_96)"/>
<path d="M95.3778 77.2196L94.9876 80.6328H92.2028L94.8685 60.6906H97.7724L100.438 80.6328H97.3822L97.0832 77.2196H95.3778ZM96.8146 74.3765L96.3356 68.8373L95.7072 74.3765H96.8146Z" fill="url(#paint9_linear_1_96)"/>
<path d="M107.211 60.6942L108.617 65.9952C108.947 67.252 109.725 70.5766 109.935 71.7751H109.996C109.877 70.6678 109.727 66.0256 109.727 64.9791V60.6967H112.662V80.6389H109.547L108.23 75.6673C107.903 74.4687 107.183 71.2354 106.973 70.0672H106.912C107.031 71.1163 107.15 75.6673 107.15 76.6555L107.181 80.6389H104.216V60.6967H107.211V60.6942Z" fill="url(#paint10_linear_1_96)"/>
<path d="M122.394 60.6942H125.389L122.336 72.6721V80.6364H119.222V72.6721L116.168 60.6942H119.163L120.21 65.605C120.45 66.654 120.719 68.1212 120.78 68.6888H120.841C120.902 68.1212 121.109 66.654 121.35 65.605L122.397 60.6942H122.394Z" fill="url(#paint11_linear_1_96)"/>
<path d="M45.4922 93.5865C44.1881 90.6698 40.7665 89.3625 37.8498 90.6666C34.9331 91.9707 33.6258 95.3924 34.9299 98.3091L49.5216 130.945C50.8257 133.861 54.2473 135.169 57.164 133.864C60.0808 132.56 61.388 129.139 60.0839 126.222L45.4922 93.5865Z" fill="white"/>
<mask id="mask1_1_96" style="mask-type:luminance" maskUnits="userSpaceOnUse" x="34" y="90" width="27" height="45">
<path d="M45.4915 93.5869C44.1874 90.6702 40.7658 89.3629 37.849 90.667C34.9323 91.9711 33.625 95.3927 34.9291 98.3094L49.5209 130.945C50.825 133.862 54.2466 135.169 57.1633 133.865C60.08 132.561 61.3873 129.139 60.0832 126.222L45.4915 93.5869Z" fill="white"/>
</mask>
<g mask="url(#mask1_1_96)">
<path d="M58.6455 137.405C58.3465 137.405 58.0602 137.233 57.9284 136.944L36.6001 89.7944C36.4228 89.3991 36.5976 88.9354 36.9929 88.7555C37.3882 88.5756 37.8519 88.7504 38.0318 89.1457L59.3601 136.295C59.5375 136.69 59.3626 137.154 58.9674 137.334C58.8635 137.382 58.752 137.405 58.6455 137.405Z" fill="#00ECB6"/>
</g>
<path d="M107.378 126.221C106.074 129.137 107.381 132.559 110.298 133.863C113.215 135.167 116.636 133.86 117.94 130.943L132.532 98.3077C133.836 95.391 132.529 91.9694 129.612 90.6653C126.695 89.3612 123.274 90.6685 121.97 93.5852L107.378 126.221Z" fill="white"/>
<mask id="mask2_1_96" style="mask-type:luminance" maskUnits="userSpaceOnUse" x="106" y="90" width="28" height="45">
<path d="M107.377 126.222C106.072 129.139 107.38 132.56 110.296 133.864C113.213 135.168 116.635 133.861 117.939 130.944L132.531 98.3089C133.835 95.3922 132.527 91.9705 129.611 90.6664C126.694 89.3623 123.272 90.6696 121.968 93.5863L107.377 126.222Z" fill="white"/>
</mask>
<g mask="url(#mask2_1_96)">
<path d="M108.815 137.405C108.706 137.405 108.594 137.382 108.491 137.334C108.095 137.156 107.92 136.69 108.1 136.295L129.429 89.1456C129.606 88.7503 130.075 88.5755 130.468 88.7554C130.863 88.9327 131.038 89.399 130.858 89.7943L109.529 136.944C109.4 137.232 109.114 137.405 108.815 137.405Z" fill="#00ECB6"/>
</g>
</g>
<defs>
<linearGradient id="paint0_linear_1_96" x1="37.4877" y1="84.5742" x2="89.6441" y2="136.728" gradientUnits="userSpaceOnUse">
<stop stop-color="white"/>
<stop offset="0.21" stop-color="#E7E7E6"/>
<stop offset="0.65" stop-color="#AAAAA8"/>
<stop offset="0.99" stop-color="#797976"/>
</linearGradient>
<linearGradient id="paint1_linear_1_96" x1="43.2211" y1="78.8398" x2="95.3775" y2="130.994" gradientUnits="userSpaceOnUse">
<stop stop-color="white"/>
<stop offset="0.21" stop-color="#E7E7E6"/>
<stop offset="0.65" stop-color="#AAAAA8"/>
<stop offset="0.99" stop-color="#797976"/>
</linearGradient>
<linearGradient id="paint2_linear_1_96" x1="47.9985" y1="74.0607" x2="100.155" y2="126.217" gradientUnits="userSpaceOnUse">
<stop stop-color="white"/>
<stop offset="0.21" stop-color="#E7E7E6"/>
<stop offset="0.65" stop-color="#AAAAA8"/>
<stop offset="0.99" stop-color="#797976"/>
</linearGradient>
<linearGradient id="paint3_linear_1_96" x1="53.1738" y1="68.8831" x2="105.33" y2="121.039" gradientUnits="userSpaceOnUse">
<stop stop-color="white"/>
<stop offset="0.21" stop-color="#E7E7E6"/>
<stop offset="0.65" stop-color="#AAAAA8"/>
<stop offset="0.99" stop-color="#797976"/>
</linearGradient>
<linearGradient id="paint4_linear_1_96" x1="59.9012" y1="62.1554" x2="112.058" y2="114.312" gradientUnits="userSpaceOnUse">
<stop stop-color="white"/>
<stop offset="0.21" stop-color="#E7E7E6"/>
<stop offset="0.65" stop-color="#AAAAA8"/>
<stop offset="0.99" stop-color="#797976"/>
</linearGradient>
<linearGradient id="paint5_linear_1_96" x1="48.5809" y1="73.3007" x2="100.735" y2="125.455" gradientUnits="userSpaceOnUse">
<stop stop-color="white"/>
<stop offset="0.21" stop-color="#E7E7E6"/>
<stop offset="0.65" stop-color="#AAAAA8"/>
<stop offset="0.99" stop-color="#797976"/>
</linearGradient>
<linearGradient id="paint6_linear_1_96" x1="54.4128" y1="67.4648" x2="106.569" y2="119.621" gradientUnits="userSpaceOnUse">
<stop stop-color="white"/>
<stop offset="0.21" stop-color="#E7E7E6"/>
<stop offset="0.65" stop-color="#AAAAA8"/>
<stop offset="0.99" stop-color="#797976"/>
</linearGradient>
<linearGradient id="paint7_linear_1_96" x1="61.3261" y1="60.5548" x2="113.48" y2="112.709" gradientUnits="userSpaceOnUse">
<stop stop-color="white"/>
<stop offset="0.21" stop-color="#E7E7E6"/>
<stop offset="0.65" stop-color="#AAAAA8"/>
<stop offset="0.99" stop-color="#797976"/>
</linearGradient>
<linearGradient id="paint8_linear_1_96" x1="67.7425" y1="54.1388" x2="119.896" y2="106.295" gradientUnits="userSpaceOnUse">
<stop stop-color="white"/>
<stop offset="0.21" stop-color="#E7E7E6"/>
<stop offset="0.65" stop-color="#AAAAA8"/>
<stop offset="0.99" stop-color="#797976"/>
</linearGradient>
<linearGradient id="paint9_linear_1_96" x1="73.1018" y1="48.776" x2="125.256" y2="100.93" gradientUnits="userSpaceOnUse">
<stop stop-color="white"/>
<stop offset="0.21" stop-color="#E7E7E6"/>
<stop offset="0.65" stop-color="#AAAAA8"/>
<stop offset="0.99" stop-color="#797976"/>
</linearGradient>
<linearGradient id="paint10_linear_1_96" x1="79.8266" y1="42.0519" x2="131.983" y2="94.2083" gradientUnits="userSpaceOnUse">
<stop stop-color="white"/>
<stop offset="0.21" stop-color="#E7E7E6"/>
<stop offset="0.65" stop-color="#AAAAA8"/>
<stop offset="0.99" stop-color="#797976"/>
</linearGradient>
<linearGradient id="paint11_linear_1_96" x1="86.759" y1="35.119" x2="138.915" y2="87.2753" gradientUnits="userSpaceOnUse">
<stop stop-color="white"/>
<stop offset="0.21" stop-color="#E7E7E6"/>
<stop offset="0.65" stop-color="#AAAAA8"/>
<stop offset="0.99" stop-color="#797976"/>
</linearGradient>
</defs>
</svg>
